<?xml version="1.0" encoding="utf-8"?>
<!-- Generator: Adobe Illustrator 22.1.0, SVG Export Plug-In . SVG Version: 6.00 Build 0)  -->
<svg version="1.1" id="Layer_1" xmlns="http://www.w3.org/2000/svg" xmlns:xlink="http://www.w3.org/1999/xlink" x="0px" y="0px"
	 viewBox="0 0 150 400" style="enable-background:new 0 0 150 400;" xml:space="preserve">
<style type="text/css">
	.st0{display:none;}
	.st1{display:inline;}
	.st2{fill:none;stroke:#000000;stroke-miterlimit:10;}
	.st3{fill:none;stroke:#000000;stroke-width:2;stroke-miterlimit:10;}
	.st4{display:inline;fill:none;stroke:#000000;stroke-miterlimit:10;}
	.st5{display:none;fill:#FFFFFF;stroke:#FFE315;stroke-miterlimit:10;}
	.st6{display:none;fill:#FFFFFF;stroke:#329B32;stroke-miterlimit:10;}
	.st7{display:inline;fill:#FFFFFF;stroke:#1D58FF;stroke-width:2;stroke-miterlimit:10;}
	.st8{display:inline;fill:#FFFFFF;stroke:#1D58FF;stroke-miterlimit:10;}
	.st9{fill:#FFFFFF;stroke:#000000;stroke-width:2;stroke-miterlimit:10;}
	.st10{fill:#FFFFFF;stroke:#000000;stroke-miterlimit:10;}
	.st11{display:inline;fill:none;stroke:#000000;stroke-width:2;stroke-miterlimit:10;}
	.st12{display:none;fill:none;stroke:#F7B46B;stroke-width:2;stroke-miterlimit:10;}
	.st13{fill:#FFFFFF;stroke:#329B32;stroke-width:2;stroke-miterlimit:10;}
	.st14{fill:#FFFFFF;stroke:#329B32;stroke-miterlimit:10;}
	.st15{display:inline;fill:#FFFFFF;stroke:#329B32;stroke-miterlimit:10;}
</style>
<g class="st0">
	<g class="st1">
		<rect x="13.7" y="350.3" class="st2" width="17.7" height="17.7"/>
		<rect x="43.8" y="320" class="st2" width="17.7" height="17.7"/>
		<line class="st2" x1="107" y1="342.2" x2="0" y2="342.2"/>
		<line class="st2" x1="0.2" y1="372" x2="107.2" y2="372"/>
		<g>
			<polyline class="st3" points="0.6,320 0.6,400 106.4,400 106.4,320 			"/>
		</g>
	</g>
	<line class="st4" x1="9.9" y1="400" x2="9.9" y2="320"/>
	<line class="st4" x1="54" y1="319.5" x2="54" y2="399.9"/>
	<line class="st4" x1="95.5" y1="320" x2="95.5" y2="400"/>
</g>
<path class="st5" d="M53.5,122.4"/>
<line class="st6" x1="54.3" y1="40.3" x2="53.8" y2="122"/>
<g class="st0">
	<polygon class="st7" points="29.9,41.5 29.9,10.5 38.8,0 67.9,0 75.4,9.8 75.4,41.5 	"/>
	<line class="st8" x1="30.1" y1="25.1" x2="75.2" y2="25.1"/>
	<line class="st8" x1="30.1" y1="11" x2="75.2" y2="11"/>
	<line class="st8" x1="54.3" y1="0" x2="54" y2="40.5"/>
</g>
<g>
	<rect x="9.9" y="123.1" class="st9" width="85.5" height="117"/>
	<rect x="27.5" y="209.1" class="st10" width="17.7" height="17.7"/>
	<rect x="61.5" y="183.9" class="st10" width="17.7" height="17.7"/>
	<rect x="22.5" y="152.5" class="st10" width="17.7" height="17.7"/>
	<rect x="61.5" y="130.7" class="st10" width="17.7" height="17.7"/>
	<rect x="9.9" y="123.1" class="st9" width="85.5" height="2.9"/>
	<line class="st10" x1="8.9" y1="148.4" x2="94.4" y2="148.4"/>
	<line class="st10" x1="9.9" y1="177.4" x2="95.4" y2="177.4"/>
	<line class="st10" x1="9.9" y1="204.7" x2="95.4" y2="204.7"/>
	<line class="st10" x1="8.9" y1="232.3" x2="94.4" y2="232.3"/>
	<line class="st10" x1="18.7" y1="123.1" x2="18.7" y2="238.8"/>
	<line class="st10" x1="86.7" y1="122.5" x2="86.7" y2="239.4"/>
	<line class="st10" x1="54" y1="122.1" x2="54" y2="239"/>
</g>
<g class="st0">
	<rect x="77.8" y="290.1" class="st4" width="17.7" height="17.7"/>
	<rect x="43.8" y="265.8" class="st4" width="17.7" height="17.7"/>
	<rect x="9.8" y="246.7" class="st4" width="17.7" height="17.7"/>
	<rect x="0.6" y="240.1" class="st11" width="105.8" height="3.3"/>
	<line class="st4" x1="-0.6" y1="264.3" x2="106.4" y2="264.3"/>
	<line class="st4" x1="0" y1="287.3" x2="107" y2="287.3"/>
	<line class="st4" x1="0" y1="311.4" x2="107" y2="311.4"/>
	<g class="st1">
		<polyline class="st3" points="106.4,320 106.4,240.1 0.6,240.1 0.6,320 		"/>
	</g>
	<line class="st4" x1="9.9" y1="320" x2="9.9" y2="240.1"/>
	<line class="st4" x1="54" y1="239.6" x2="54" y2="319.5"/>
	<line class="st4" x1="95.5" y1="320" x2="95.5" y2="240.1"/>
</g>
<path class="st12" d="M54.3,42.8"/>
<g class="st0">
	<g class="st1">
		<polygon class="st13" points="86.7,123.1 18.7,123.1 18.7,64.5 18.7,41.5 86.7,41.5 		"/>
		<rect x="27.5" y="94.4" class="st14" width="17.7" height="17.7"/>
		<rect x="61.5" y="67.5" class="st14" width="17.7" height="17.7"/>
		<rect x="36.3" y="46.8" class="st14" width="17.7" height="17.7"/>
		<rect x="18.7" y="41.5" class="st13" width="68" height="2.8"/>
		<line class="st14" x1="18.7" y1="64.5" x2="86.7" y2="64.5"/>
		<line class="st14" x1="18.7" y1="89.1" x2="86.7" y2="89.1"/>
		<line class="st14" x1="18.7" y1="116.1" x2="86.7" y2="116.1"/>
	</g>
	<line class="st15" x1="54" y1="40.5" x2="54.3" y2="122"/>
</g>
</svg>
