<?xml version="1.0" encoding="utf-8"?>
<!-- Generator: Adobe Illustrator 22.1.0, SVG Export Plug-In . SVG Version: 6.00 Build 0)  -->
<svg version="1.1" id="Layer_1" xmlns="http://www.w3.org/2000/svg" xmlns:xlink="http://www.w3.org/1999/xlink" x="0px" y="0px"
	 viewBox="0 0 150 400" style="enable-background:new 0 0 150 400;" xml:space="preserve">
<style type="text/css">
	.st0{display:none;}
	.st1{display:inline;fill:none;stroke:#000000;stroke-miterlimit:10;}
	.st2{display:inline;fill:#FFFFFF;stroke:#000000;stroke-miterlimit:10;}
	.st3{fill:#FFFFFF;stroke:#000000;stroke-miterlimit:10;}
</style>
<g class="st0">
	<polyline class="st1" points="0,320.1 0,400.2 105.9,400.2 105.9,320.1 	"/>
	<line class="st2" x1="52.9" y1="320.1" x2="52.9" y2="400.1"/>
</g>
<g class="st0">
	<polyline class="st1" points="105.9,320.1 105.9,240.1 0,240.1 0,320.1 	"/>
	<line class="st2" x1="52.9" y1="320.1" x2="52.9" y2="240.2"/>
</g>
<g class="st0">
	<rect x="10.2" y="123.1" class="st2" width="85.6" height="117.1"/>
	<line class="st2" x1="52.9" y1="240.2" x2="52.9" y2="123.1"/>
</g>
<g class="st0">
	<polygon class="st2" points="87,123.1 18.9,123.1 18.9,64.4 18.9,41.3 87,41.3 	"/>
	<line class="st2" x1="52.9" y1="123" x2="52.9" y2="41.3"/>
</g>
<g>
	<polygon class="st3" points="30.2,41.5 30.2,10.5 39,0 68.2,0 75.7,9.8 75.7,41.5 	"/>
	<line class="st3" x1="52.9" y1="41.3" x2="52.9" y2="0"/>
</g>
</svg>
