<?xml version="1.0" encoding="utf-8"?>
<!-- Generator: Adobe Illustrator 22.1.0, SVG Export Plug-In . SVG Version: 6.00 Build 0)  -->
<svg version="1.1" id="Layer_1" xmlns="http://www.w3.org/2000/svg" xmlns:xlink="http://www.w3.org/1999/xlink" x="0px" y="0px"
	 viewBox="0 0 150 400" style="enable-background:new 0 0 150 400;" xml:space="preserve">
<style type="text/css">
	.st0{fill:#507776;}
	.st1{display:none;}
	.st2{display:inline;fill:#507776;}
	.st3{display:inline;fill:#92DBFF;}
	.st4{display:inline;fill:#FFFFFF;}
	.st5{display:inline;fill:#9B9B9B;}
	.st6{display:none;opacity:0.2;}
	.st7{display:inline;}
	.st8{fill:#92DBFF;}
	.st9{fill:#FFFFFF;}
	.st10{display:inline;opacity:0.2;}
	.st11{fill:#9B9B9B;}
	.st12{opacity:0.2;}
</style>
<polygon class="st0" points="28.9,41.2 28.9,10.2 37.7,-0.3 66.9,-0.3 74.4,9.5 74.4,41.2 "/>
<g class="st1">
	<rect x="8.9" y="122.9" class="st2" width="85.6" height="117.1"/>
	<rect x="26.5" y="209" class="st3" width="17.7" height="17.7"/>
	<rect x="60.5" y="183.7" class="st3" width="17.7" height="17.7"/>
	<rect x="21.5" y="152.3" class="st3" width="17.7" height="17.7"/>
	<rect x="60.5" y="130.5" class="st3" width="17.7" height="17.7"/>
	<polygon class="st4" points="26.5,209 44.2,209 44.2,226.7 	"/>
	<polygon class="st4" points="60.5,183.7 78.2,183.7 78.2,201.4 	"/>
	<polygon class="st4" points="21.5,152.3 39.2,152.3 39.2,170 	"/>
	<polygon class="st4" points="60.5,130.5 78.2,130.5 78.2,148.2 	"/>
	<rect x="8.9" y="122.9" class="st5" width="85.6" height="2.9"/>
</g>
<g class="st1">
	<rect x="17.6" y="41.2" class="st2" width="68" height="81.8"/>
	<rect x="26.5" y="94.2" class="st3" width="17.7" height="17.7"/>
	<rect x="60.5" y="67.2" class="st3" width="17.7" height="17.7"/>
	<rect x="35.3" y="46.6" class="st3" width="17.7" height="17.7"/>
	<polygon class="st4" points="26.5,94.2 44.2,94.2 44.2,111.9 	"/>
	<polygon class="st4" points="60.5,67.2 78.2,67.2 78.2,84.9 	"/>
	<polygon class="st4" points="35.3,46.6 53,46.6 53,64.2 	"/>
	<rect x="17.6" y="41.2" class="st5" width="68" height="2.8"/>
</g>
<polygon class="st6" points="53,-0.3 34.4,-0.3 26.4,10.2 26.4,41.2 16.1,41.2 16.1,43.9 16.1,122.9 8,122.9 8,125.8 8,240 
	-0.5,240 -0.5,243.3 -0.5,400 53,400 "/>
<g class="st1">
	<g class="st7">
		<g>
			<rect x="-0.4" y="318.8" class="st0" width="105.8" height="81.2"/>
		</g>
		<rect x="12.6" y="350.3" class="st8" width="17.7" height="17.7"/>
		<rect x="42.8" y="320" class="st8" width="17.7" height="17.7"/>
		<polygon class="st9" points="42.8,320 60.5,320 60.5,337.7 		"/>
		<polygon class="st9" points="12.6,350.3 30.3,350.3 30.3,367.9 		"/>
	</g>
	<polygon class="st10" points="105.4,318.8 105.4,318.5 -0.4,318.5 -0.4,399.7 53,399.7 53,318.8 	"/>
</g>
<g class="st1">
	<g class="st7">
		<rect x="-0.4" y="240" class="st0" width="105.8" height="78.8"/>
		<rect x="76.8" y="290" class="st8" width="17.7" height="17.7"/>
		<rect x="42.8" y="265.6" class="st8" width="17.7" height="17.7"/>
		<rect x="8.8" y="246.5" class="st8" width="17.7" height="17.7"/>
		<polygon class="st9" points="8.8,246.5 26.5,246.5 26.5,264.2 		"/>
		<polygon class="st9" points="42.8,265.6 60.5,265.6 60.5,283.3 		"/>
		<polygon class="st9" points="76.8,290 94.5,290 94.5,307.7 		"/>
		<rect x="-0.5" y="240" class="st11" width="105.9" height="3.3"/>
	</g>
	<g class="st10">
		<rect x="105.4" y="240.2" width="0" height="3.3"/>
		<polygon points="53,240.2 -0.4,240.2 -0.5,240.2 -0.5,243.5 -0.4,243.5 -0.4,319.1 105.4,319.1 105.4,318.8 53,318.8 		"/>
	</g>
</g>
<polygon class="st6" points="8.9,122.9 8.9,125.8 8.9,240 52.5,240 52.5,122.9 "/>
<polygon class="st6" points="17.6,41.2 17.6,43.9 17.6,122.9 53,122.9 53,41.2 "/>
<polygon class="st12" points="53,0 37.7,0 28.9,10.5 28.9,41.5 74.4,41.5 74.4,41.2 53,41.2 "/>
</svg>
